<svg id="Layer_1" data-name="Layer 1" xmlns="http://www.w3.org/2000/svg" viewBox="0 0 1800 1200"><defs><style>.cls-1{font-size:100px;font-family:Metropolis-Regular, Metropolis;}.cls-2{font-size:200px;font-family:Metropolis-ExtraBold, Metropolis;font-weight:800;}.cls-2,.cls-3{fill:#eb2027;}</style></defs><title>Red Dog 1</title><text class="cls-1" transform="translate(546.77 884.86)">DIGITAL LTD</text><text class="cls-2" transform="translate(481.29 769.97)">RED DOG</text><path class="cls-3" d="M1180.94,343a89.83,89.83,0,0,1,.19-15.12c0-.23,0-.47,0-.71a8.82,8.82,0,0,0-8.44-8.81l-.18-.29c-1.48.32-3,.63-4.45.91a241.32,241.32,0,0,1-91.64,0,237.64,237.64,0,0,1-51.22-16.18h0a3.11,3.11,0,0,0-2.45,0l-3.65,1.49a2,2,0,0,0-1.31,1.83v0a4.53,4.53,0,0,0,.35,1.73l.75,1.2a56.4,56.4,0,0,1-9.69,70.62,91.6,91.6,0,0,0,26,20l1.38.69a4.41,4.41,0,0,1,2.43,5.1c-.06.18-.12.36-.2.54a4.35,4.35,0,0,1-4,2.55h0a4.19,4.19,0,0,1-1.55-.29,146.1,146.1,0,0,1-42.05-14.55,147.35,147.35,0,0,1-23.86,12.22l-.25.52-.52-.22a147.35,147.35,0,0,1-131.42-11.51A56.54,56.54,0,0,1,804.5,349.8c0-.14,0-.29,0-.43a4.67,4.67,0,0,0-9-.82c-.08.41-.17.82-.24,1.24-.46,2.45-.83,4.94-1.08,7.46a89.74,89.74,0,0,0-.49,9.47,90.87,90.87,0,0,0,23.26,60.86A147.34,147.34,0,0,0,762,542.46h42.08a91.29,91.29,0,0,1,168.41,0h39.27A147.63,147.63,0,0,1,1079,418.58l.34-.22a147.32,147.32,0,0,1,22.78-12,15.17,15.17,0,0,1,2.86-.93,55.4,55.4,0,0,1,11.67-1.22c.86,0,1.71,0,2.56.06s2,.11,2.93.2,1.73.07,2.6.07a56.1,56.1,0,0,0,31.56-9.66h0a56.35,56.35,0,0,0,24.83-46.75c0-.23,0-.46,0-.69C1181.14,345.93,1181.06,344.48,1180.94,343Zm-104.38,13.88c-.23,0-.44,0-.67,0h0l-.37,0a2.34,2.34,0,0,1-.45-.07s0,0,0,0c-.24,0-.48-.1-.72-.17a1.27,1.27,0,0,0-.18-.06l-.74-.25-.37-.16c-.23-.1-.47-.21-.69-.33l-.42-.26c-.18-.12-.37-.23-.55-.36a9.19,9.19,0,0,1-.89-.74,3.76,3.76,0,0,1-.34-.35,8.41,8.41,0,0,1-.83-1c-.1-.15-.2-.3-.29-.45a4.31,4.31,0,0,1-.26-.47c-.09-.16-.17-.33-.24-.49a8.86,8.86,0,0,1,0-7.09,8,8,0,0,1,.76-1.37,3.19,3.19,0,0,1,.3-.42c.1-.14.21-.27.32-.4a4.14,4.14,0,0,1,.35-.38,3.73,3.73,0,0,1,.35-.34c.13-.13.27-.25.4-.36a8.36,8.36,0,0,1,1.64-1.06l.12-.06c.26-.13.53-.23.8-.34l.19-.07c.28-.09.56-.17.84-.23l.15,0,.35-.08.6-.08.29,0c.13,0,.27,0,.41,0a8.94,8.94,0,0,1,9,8.55A8.83,8.83,0,0,1,1076.56,356.92Z"/></svg>